<svg xmlns="http://www.w3.org/2000/svg" width="24" height="24" viewBox="0 0 24 24">
  <path id="Path_42070" data-name="Path 42070" d="M26.014,16.893a1.33,1.33,0,0,0-1.663.865,9.5,9.5,0,0,1-9.139,6.549A9.448,9.448,0,0,1,5.661,14.99a9.448,9.448,0,0,1,9.551-9.318A9.654,9.654,0,0,1,21.4,7.895l-2.887-.479a1.335,1.335,0,1,0-.426,2.636l5.64.932h.226a1.329,1.329,0,0,0,.452-.08.439.439,0,0,0,.133-.08,1.037,1.037,0,0,0,.266-.146l.12-.146c0-.067.12-.12.173-.2s0-.133.067-.186a1.784,1.784,0,0,0,.093-.24l1-5.325a1.354,1.354,0,1,0-2.661-.506L23.234,6a12.247,12.247,0,0,0-8.022-3A12.109,12.109,0,0,0,3,14.99,12.109,12.109,0,0,0,15.212,26.97a12.133,12.133,0,0,0,11.733-8.413,1.331,1.331,0,0,0-.931-1.664Z" transform="translate(-3 -2.972)" fill="#012150"/>
</svg>
